<svg width="21" height="16" viewBox="0 0 21 16" fill="none" xmlns="http://www.w3.org/2000/svg">
<g clip-path="url(#clip0_211_5644)">
<path d="M4.75 0C5.41304 0 6.04893 0.263392 6.51777 0.732233C6.98661 1.20107 7.25 1.83696 7.25 2.5C7.25 3.16304 6.98661 3.79893 6.51777 4.26777C6.04893 4.73661 5.41304 5 4.75 5C4.08696 5 3.45107 4.73661 2.98223 4.26777C2.51339 3.79893 2.25 3.16304 2.25 2.5C2.25 1.83696 2.51339 1.20107 2.98223 0.732233C3.45107 0.263392 4.08696 0 4.75 0ZM16.25 0C16.913 0 17.5489 0.263392 18.0178 0.732233C18.4866 1.20107 18.75 1.83696 18.75 2.5C18.75 3.16304 18.4866 3.79893 18.0178 4.26777C17.5489 4.73661 16.913 5 16.25 5C15.587 5 14.9511 4.73661 14.4822 4.26777C14.0134 3.79893 13.75 3.16304 13.75 2.5C13.75 1.83696 14.0134 1.20107 14.4822 0.732233C14.9511 0.263392 15.587 0 16.25 0ZM0.25 9.33438C0.25 7.49375 1.74375 6 3.58437 6H4.91875C5.41562 6 5.8875 6.10938 6.3125 6.30312C6.27187 6.52812 6.25313 6.7625 6.25313 7C6.25313 8.19375 6.77812 9.26562 7.60625 10C7.6 10 7.59375 10 7.58437 10H0.915625C0.55 10 0.25 9.7 0.25 9.33438ZM12.9156 10C12.9094 10 12.9031 10 12.8938 10C13.725 9.26562 14.2469 8.19375 14.2469 7C14.2469 6.7625 14.225 6.53125 14.1875 6.30312C14.6125 6.10625 15.0844 6 15.5813 6H16.9156C18.7563 6 20.25 7.49375 20.25 9.33438C20.25 9.70312 19.95 10 19.5844 10H12.9156ZM7.25 7C7.25 6.20435 7.56607 5.44129 8.12868 4.87868C8.69129 4.31607 9.45435 4 10.25 4C11.0456 4 11.8087 4.31607 12.3713 4.87868C12.9339 5.44129 13.25 6.20435 13.25 7C13.25 7.79565 12.9339 8.55871 12.3713 9.12132C11.8087 9.68393 11.0456 10 10.25 10C9.45435 10 8.69129 9.68393 8.12868 9.12132C7.56607 8.55871 7.25 7.79565 7.25 7ZM4.25 15.1656C4.25 12.8656 6.11562 11 8.41562 11H12.0844C14.3844 11 16.25 12.8656 16.25 15.1656C16.25 15.625 15.8781 16 15.4156 16H5.08437C4.625 16 4.25 15.6281 4.25 15.1656Z" fill="#E5E7EB"/>
</g>
<defs>
<clipPath id="clip0_211_5644">
<path d="M0.25 0H20.25V16H0.25V0Z" fill="white"/>
</clipPath>
</defs>
</svg>
