<svg width="15" height="16" viewBox="0 0 15 16" fill="none" xmlns="http://www.w3.org/2000/svg">
<path d="M3.17188 1V2H1.67188C0.84375 2 0.171875 2.67188 0.171875 3.5V5H14.1719V3.5C14.1719 2.67188 13.5 2 12.6719 2H11.1719V1C11.1719 0.446875 10.725 0 10.1719 0C9.61875 0 9.17188 0.446875 9.17188 1V2H5.17188V1C5.17188 0.446875 4.725 0 4.17188 0C3.61875 0 3.17188 0.446875 3.17188 1ZM14.1719 6H0.171875V14.5C0.171875 15.3281 0.84375 16 1.67188 16H12.6719C13.5 16 14.1719 15.3281 14.1719 14.5V6ZM7.17188 7.75C7.5875 7.75 7.92188 8.08438 7.92188 8.5V10.25H9.67188C10.0875 10.25 10.4219 10.5844 10.4219 11C10.4219 11.4156 10.0875 11.75 9.67188 11.75H7.92188V13.5C7.92188 13.9156 7.5875 14.25 7.17188 14.25C6.75625 14.25 6.42188 13.9156 6.42188 13.5V11.75H4.67188C4.25625 11.75 3.92188 11.4156 3.92188 11C3.92188 10.5844 4.25625 10.25 4.67188 10.25H6.42188V8.5C6.42188 8.08438 6.75625 7.75 7.17188 7.75Z" fill="white"/>
</svg>
