<svg width="13" height="16" viewBox="0 0 13 16" fill="none" xmlns="http://www.w3.org/2000/svg">
<g clip-path="url(#clip0_211_5634)">
<path d="M6.57812 0C5.27187 0 4.15937 0.834375 3.75 2H2.57812C1.475 2 0.578125 2.89687 0.578125 4V14C0.578125 15.1031 1.475 16 2.57812 16H10.5781C11.6812 16 12.5781 15.1031 12.5781 14V4C12.5781 2.89687 11.6812 2 10.5781 2H9.40625C8.99687 0.834375 7.88438 0 6.57812 0ZM6.57812 2C6.84334 2 7.0977 2.10536 7.28523 2.29289C7.47277 2.48043 7.57812 2.73478 7.57812 3C7.57812 3.26522 7.47277 3.51957 7.28523 3.70711C7.0977 3.89464 6.84334 4 6.57812 4C6.31291 4 6.05855 3.89464 5.87102 3.70711C5.68348 3.51957 5.57812 3.26522 5.57812 3C5.57812 2.73478 5.68348 2.48043 5.87102 2.29289C6.05855 2.10536 6.31291 2 6.57812 2ZM2.82812 8.5C2.82812 8.30109 2.90714 8.11032 3.04779 7.96967C3.18845 7.82902 3.37921 7.75 3.57812 7.75C3.77704 7.75 3.9678 7.82902 4.10846 7.96967C4.24911 8.11032 4.32812 8.30109 4.32812 8.5C4.32812 8.69891 4.24911 8.88968 4.10846 9.03033C3.9678 9.17098 3.77704 9.25 3.57812 9.25C3.37921 9.25 3.18845 9.17098 3.04779 9.03033C2.90714 8.88968 2.82812 8.69891 2.82812 8.5ZM6.07812 8H10.0781C10.3531 8 10.5781 8.225 10.5781 8.5C10.5781 8.775 10.3531 9 10.0781 9H6.07812C5.80312 9 5.57812 8.775 5.57812 8.5C5.57812 8.225 5.80312 8 6.07812 8ZM2.82812 11.5C2.82812 11.3011 2.90714 11.1103 3.04779 10.9697C3.18845 10.829 3.37921 10.75 3.57812 10.75C3.77704 10.75 3.9678 10.829 4.10846 10.9697C4.24911 11.1103 4.32812 11.3011 4.32812 11.5C4.32812 11.6989 4.24911 11.8897 4.10846 12.0303C3.9678 12.171 3.77704 12.25 3.57812 12.25C3.37921 12.25 3.18845 12.171 3.04779 12.0303C2.90714 11.8897 2.82812 11.6989 2.82812 11.5ZM5.57812 11.5C5.57812 11.225 5.80312 11 6.07812 11H10.0781C10.3531 11 10.5781 11.225 10.5781 11.5C10.5781 11.775 10.3531 12 10.0781 12H6.07812C5.80312 12 5.57812 11.775 5.57812 11.5Z" fill="currentColor"/>
</g>
<defs>
<clipPath id="clip0_211_5634">
<path d="M0.578125 0H12.5781V16H0.578125V0Z" fill="white"/>
</clipPath>
</defs>
</svg>
