<svg width="14" height="15" viewBox="0 0 14 15" fill="none" xmlns="http://www.w3.org/2000/svg">
<path d="M4.75 -0.25C4.75 -0.665625 4.41563 -1 4 -1C3.58437 -1 3.25 -0.665625 3.25 -0.25V1H2C0.896875 1 0 1.89687 0 3V3.5V5V13C0 14.1031 0.896875 15 2 15H12C13.1031 15 14 14.1031 14 13V5V3.5V3C14 1.89687 13.1031 1 12 1H10.75V-0.25C10.75 -0.665625 10.4156 -1 10 -1C9.58438 -1 9.25 -0.665625 9.25 -0.25V1H4.75V-0.25ZM1.5 5H12.5V13C12.5 13.275 12.275 13.5 12 13.5H2C1.725 13.5 1.5 13.275 1.5 13V5Z" fill="#63594B"/>
</svg>
