<svg width="36" height="32" viewBox="0 0 36 32" fill="none" xmlns="http://www.w3.org/2000/svg">
<path d="M10.4836 2.55625L9.75234 4.75H4.5C2.01797 4.75 0 6.76797 0 9.25V27.25C0 29.732 2.01797 31.75 4.5 31.75H31.5C33.982 31.75 36 29.732 36 27.25V9.25C36 6.76797 33.982 4.75 31.5 4.75H26.2477L25.5164 2.55625C25.0594 1.17813 23.7727 0.25 22.3172 0.25H13.6828C12.2273 0.25 10.9406 1.17813 10.4836 2.55625ZM18 11.5C19.7902 11.5 21.5071 12.2112 22.773 13.477C24.0388 14.7429 24.75 16.4598 24.75 18.25C24.75 20.0402 24.0388 21.7571 22.773 23.023C21.5071 24.2888 19.7902 25 18 25C16.2098 25 14.4929 24.2888 13.227 23.023C11.9612 21.7571 11.25 20.0402 11.25 18.25C11.25 16.4598 11.9612 14.7429 13.227 13.477C14.4929 12.2112 16.2098 11.5 18 11.5Z" fill="#63594B"/>
</svg>
