<svg width="17" height="16" viewBox="0 0 17 16" fill="none" xmlns="http://www.w3.org/2000/svg">
<g clip-path="url(#clip0_211_5639)">
<path d="M1.89375 9.38752L7.54063 14.6594C7.775 14.8781 8.08437 15 8.40625 15C8.72812 15 9.0375 14.8781 9.27188 14.6594L14.9187 9.38752C15.8687 8.50314 16.4062 7.26251 16.4062 5.96564V5.78439C16.4062 3.60001 14.8281 1.73751 12.675 1.37814C11.25 1.14064 9.8 1.60626 8.78125 2.62501L8.40625 3.00001L8.03125 2.62501C7.0125 1.60626 5.5625 1.14064 4.1375 1.37814C1.98438 1.73751 0.40625 3.60001 0.40625 5.78439V5.96564C0.40625 7.26251 0.94375 8.50314 1.89375 9.38752Z" fill="currentColor"/>
</g>
<defs>
<clipPath id="clip0_211_5639">
<path d="M0.40625 0H16.4062V16H0.40625V0Z" fill="white"/>
</clipPath>
</defs>
</svg>
